<?xml version="1.0" encoding="UTF-8" standalone="no"?>
<svg
   viewBox="0 0 1240 925"
   version="1.1"
   id="svg691"
   sodipodi:docname="IG_light.svg"
   inkscape:version="1.1.2 (0a00cf5339, 2022-02-04)"
   xmlns:inkscape="http://www.inkscape.org/namespaces/inkscape"
   xmlns:sodipodi="http://sodipodi.sourceforge.net/DTD/sodipodi-0.dtd"
   xmlns="http://www.w3.org/2000/svg"
   xmlns:svg="http://www.w3.org/2000/svg"
   xmlns:rdf="http://www.w3.org/1999/02/22-rdf-syntax-ns#"
   xmlns:cc="http://creativecommons.org/ns#"
   xmlns:dc="http://purl.org/dc/elements/1.1/">
  <sodipodi:namedview
     id="namedview693"
     pagecolor="#ffffff"
     bordercolor="#666666"
     borderopacity="1.0"
     inkscape:pageshadow="2"
     inkscape:pageopacity="0.0"
     inkscape:pagecheckerboard="0"
     showgrid="false"
     inkscape:zoom="1.3621622"
     inkscape:cx="191.60714"
     inkscape:cy="731.19048"
     inkscape:window-width="1920"
     inkscape:window-height="1056"
     inkscape:window-x="1920"
     inkscape:window-y="0"
     inkscape:window-maximized="1"
     inkscape:current-layer="svg691" />
  <defs
     id="defs4">
    <style
       id="style2">.cls-1{fill:#262626;}.cls-2,.cls-3{fill:#fff;}.cls-3{fill-rule:evenodd;}.cls-4{fill:#929292;}.cls-5{fill:#25d366;}.cls-6{fill:#ee1d52;}.cls-7{fill:#69c9d0;}.cls-8{fill:#e52d27;}.cls-9{fill:#d41d20;}.cls-10{fill:#55acee;}.cls-11{fill:#3b445c;}.cls-12{fill:#ea4b24;}.cls-13{fill:#ffea00;}.cls-14{fill:#ff4500;}.cls-15{fill:#bd081c;}.cls-16{fill:#0076b2;}.cls-17{fill:#d50060;}.cls-18{fill:#dc4b3e;}.cls-19{fill:#3f91cb;}.cls-20{fill:#3a5a99;}.cls-21{fill:#ea4c89;}.cls-22{fill:#05cc47;}.cls-23{fill:#1d6fed;}</style>
  </defs>
  <title
     id="title6">social-media-icons-all-updated-tiktok</title>
  <circle
     id="back-65"
     data-name="back"
     class="cls-1"
     cx="42.5"
     cy="777.5"
     r="42.5"
     style="fill:#50d890;fill-opacity:1" />
  <path
     class="cls-2"
     d="m 42.5,758 c 6.35,0 7.11,0 9.62,0.14 a 12.93,12.93 0 0 1 4.42,0.82 7.91,7.91 0 0 1 4.51,4.51 12.93,12.93 0 0 1 0.82,4.42 c 0.12,2.51 0.14,3.27 0.14,9.62 0,6.35 0,7.11 -0.14,9.62 a 12.93,12.93 0 0 1 -0.82,4.42 7.91,7.91 0 0 1 -4.51,4.51 12.93,12.93 0 0 1 -4.42,0.82 c -2.51,0.12 -3.26,0.14 -9.62,0.14 -6.36,0 -7.11,0 -9.62,-0.14 a 12.93,12.93 0 0 1 -4.42,-0.82 7.91,7.91 0 0 1 -4.46,-4.52 12.93,12.93 0 0 1 -0.82,-4.42 c -0.12,-2.51 -0.14,-3.27 -0.14,-9.62 0,-6.35 0,-7.11 0.14,-9.62 a 12.93,12.93 0 0 1 0.82,-4.42 7.91,7.91 0 0 1 4.46,-4.46 12.93,12.93 0 0 1 4.42,-0.82 c 2.51,-0.12 3.27,-0.14 9.62,-0.14 m 0,-4.29 c -6.46,0 -7.27,0 -9.81,0.14 a 17.49,17.49 0 0 0 -5.78,1.11 12.1,12.1 0 0 0 -7,7 17.49,17.49 0 0 0 -1.11,5.78 c -0.11,2.54 -0.14,3.35 -0.14,9.81 0,6.46 0,7.27 0.14,9.81 a 17.49,17.49 0 0 0 1.2,5.69 12.1,12.1 0 0 0 7,7 17.49,17.49 0 0 0 5.78,1.11 c 2.54,0.11 3.35,0.14 9.81,0.14 6.46,0 7.27,0 9.81,-0.14 a 17.49,17.49 0 0 0 5.78,-1.11 12.1,12.1 0 0 0 7,-7 17.49,17.49 0 0 0 1.11,-5.78 c 0.11,-2.54 0.14,-3.35 0.14,-9.81 0,-6.46 0,-7.27 -0.14,-9.81 a 17.49,17.49 0 0 0 -1.11,-5.78 12.1,12.1 0 0 0 -7,-7 17.49,17.49 0 0 0 -5.78,-1.11 c -2.54,-0.11 -3.35,-0.14 -9.81,-0.14 z"
     id="path415" />
  <path
     class="cls-2"
     d="M 42.5,765.28 A 12.22,12.22 0 1 0 54.72,777.5 12.22,12.22 0 0 0 42.5,765.28 Z m 0,20.15 a 7.93,7.93 0 1 1 7.93,-7.93 7.93,7.93 0 0 1 -7.93,7.93 z"
     id="path417" />
  <circle
     class="cls-2"
     cx="55.200001"
     cy="764.79999"
     r="2.8599999"
     id="circle419" />
  <metadata
     id="metadata1510">
    <rdf:RDF>
      <cc:Work
         rdf:about="">
        <dc:title>social-media-icons-all-updated-tiktok</dc:title>
      </cc:Work>
    </rdf:RDF>
  </metadata>
</svg>
