<?xml version="1.0" encoding="UTF-8" standalone="no"?>
<svg
   viewBox="0 0 85 85"
   version="1.1"
   id="svg691"
   sodipodi:docname="in_light.svg"
   inkscape:version="1.1.2 (0a00cf5339, 2022-02-04)"
   width="85"
   height="85"
   xmlns:inkscape="http://www.inkscape.org/namespaces/inkscape"
   xmlns:sodipodi="http://sodipodi.sourceforge.net/DTD/sodipodi-0.dtd"
   xmlns="http://www.w3.org/2000/svg"
   xmlns:svg="http://www.w3.org/2000/svg"
   xmlns:rdf="http://www.w3.org/1999/02/22-rdf-syntax-ns#"
   xmlns:cc="http://creativecommons.org/ns#"
   xmlns:dc="http://purl.org/dc/elements/1.1/">
  <sodipodi:namedview
     id="namedview693"
     pagecolor="#ffffff"
     bordercolor="#666666"
     borderopacity="1.0"
     inkscape:pageshadow="2"
     inkscape:pageopacity="0.0"
     inkscape:pagecheckerboard="0"
     showgrid="false"
     inkscape:zoom="7.705553"
     inkscape:cx="46.070671"
     inkscape:cy="35.688548"
     inkscape:window-width="1920"
     inkscape:window-height="1056"
     inkscape:window-x="1920"
     inkscape:window-y="0"
     inkscape:window-maximized="1"
     inkscape:current-layer="svg691"
     lock-margins="true"
     fit-margin-top="0"
     fit-margin-left="0"
     fit-margin-right="0"
     fit-margin-bottom="0" />
  <defs
     id="defs4">
    <style
       id="style2">.cls-1{fill:#262626;}.cls-2,.cls-3{fill:#fff;}.cls-3{fill-rule:evenodd;}.cls-4{fill:#929292;}.cls-5{fill:#25d366;}.cls-6{fill:#ee1d52;}.cls-7{fill:#69c9d0;}.cls-8{fill:#e52d27;}.cls-9{fill:#d41d20;}.cls-10{fill:#55acee;}.cls-11{fill:#3b445c;}.cls-12{fill:#ea4b24;}.cls-13{fill:#ffea00;}.cls-14{fill:#ff4500;}.cls-15{fill:#bd081c;}.cls-16{fill:#0076b2;}.cls-17{fill:#d50060;}.cls-18{fill:#dc4b3e;}.cls-19{fill:#3f91cb;}.cls-20{fill:#3a5a99;}.cls-21{fill:#ea4c89;}.cls-22{fill:#05cc47;}.cls-23{fill:#1d6fed;}</style>
  </defs>
  <title
     id="title6">social-media-icons-all-updated-tiktok</title>
  <path
     id="path884"
     style="fill:#50d890"
     class="cls-1"
     d="M 85,42.5 A 42.5,42.5 0 0 1 42.5,85 42.5,42.5 0 0 1 0,42.5 42.5,42.5 0 0 1 42.5,0 42.5,42.5 0 0 1 85,42.5 Z" />
  <path
     class="cls-2"
     d="m 19.31,34.36 h 9.87 V 66.1 h -9.87 z m 4.94,-15.77 a 5.72,5.72 0 1 1 -5.72,5.72 5.72,5.72 0 0 1 5.72,-5.72"
     id="path881"
     style="fill:#ffffff" />
  <path
     class="cls-2"
     d="m 35.37,34.36 h 9.45 V 38.7 H 45 a 10.36,10.36 0 0 1 9.33,-5.12 c 10,0 11.83,6.57 11.83,15.11 V 66.1 H 56.3 V 50.67 c 0,-3.68 -0.06,-8.42 -5.12,-8.42 -5.06,0 -5.92,4 -5.92,8.15 v 15.7 h -9.85 z"
     id="path878"
     style="fill:#ffffff" />
  <metadata
     id="metadata1510">
    <rdf:RDF>
      <cc:Work
         rdf:about="">
        <dc:title>social-media-icons-all-updated-tiktok</dc:title>
      </cc:Work>
    </rdf:RDF>
  </metadata>
</svg>
