<?xml version="1.0" encoding="UTF-8" standalone="no"?>
<!-- Created with Inkscape (http://www.inkscape.org/) -->

<svg
   version="1.1"
   id="svg59"
   width="1440"
   height="2560"
   viewBox="0 0 1440 2560"
   sodipodi:docname="Logo final - 1.svg"
   inkscape:version="1.2 (dc2aedaf03, 2022-05-15)"
   xmlns:inkscape="http://www.inkscape.org/namespaces/inkscape"
   xmlns:sodipodi="http://sodipodi.sourceforge.net/DTD/sodipodi-0.dtd"
   xmlns="http://www.w3.org/2000/svg"
   xmlns:svg="http://www.w3.org/2000/svg">
  <defs
     id="defs63" />
  <sodipodi:namedview
     id="namedview61"
     pagecolor="#ffffff"
     bordercolor="#000000"
     borderopacity="0.25"
     inkscape:showpageshadow="2"
     inkscape:pageopacity="0.0"
     inkscape:pagecheckerboard="0"
     inkscape:deskcolor="#d1d1d1"
     showgrid="false"
     inkscape:zoom="1.009375"
     inkscape:cx="664.27245"
     inkscape:cy="1555.418"
     inkscape:window-width="2560"
     inkscape:window-height="1566"
     inkscape:window-x="-11"
     inkscape:window-y="-11"
     inkscape:window-maximized="1"
     inkscape:current-layer="g65" />
  <g
     inkscape:groupmode="layer"
     inkscape:label="Image"
     id="g65">
    <path
       style="fill:#000000;stroke-width:0.800611"
       d="m 546.10551,1635.6562 c -1.54114,-0.1484 -6.94528,-0.6635 -12.00919,-1.1447 -53.3711,-5.0709 -107.92132,-24.7541 -154.29374,-55.6733 -84.42586,-56.2917 -138.36817,-144.8198 -150.43543,-246.8888 -1.69672,-14.3513 -2.31219,-46.6745 -1.1739,-61.6473 2.7175,-35.7449 10.12183,-68.3965 23.05729,-101.6778 4.39051,-11.2961 17.72997,-38.6008 23.76494,-48.6443 43.18039,-71.8629 109.35371,-124.89658 188.22657,-150.8515 19.79248,-6.51312 44.58829,-11.94453 67.2515,-14.73111 16.22821,-1.99539 52.1404,-2.40651 69.08129,-0.79074 103.66469,9.88686 194.33997,63.08235 252.5598,148.16645 11.18241,16.3423 16.43742,25.9211 17.36838,31.6587 1.12212,6.9165 1.02888,29.3869 -0.31167,75.0658 -0.94239,32.111 -1.30662,38.1699 -2.39481,39.8306 -2.23569,3.4121 -3.9636,2.8786 -18.45963,-5.7001 -5.28399,-3.1271 -19.17333,-11.2987 -30.86505,-18.1593 -25.7382,-15.1029 -35.53756,-21.1676 -42.39103,-26.2355 -4.67795,-3.4592 -8.8067,-7.809 -8.8067,-9.2782 0,-1.4212 -12.05262,-20.4719 -17.88489,-28.2695 -16.72418,-22.3596 -33.74481,-38.4516 -57.05238,-53.9396 -57.16774,-37.9883 -129.32799,-47.4837 -194.7419,-25.6255 -43.32931,14.4786 -81.33523,41.8775 -108.61052,78.2985 -56.91218,75.9955 -60.14458,179.2116 -8.08597,258.1959 34.71799,52.6747 89.61028,88.4693 150.99541,98.4622 63.85026,10.3941 127.45557,-6.3866 178.15174,-47.0013 9.23873,-7.4015 29.20702,-26.9828 29.20702,-28.6408 0,-0.5659 -1.58239,-1.2029 -3.7145,-1.495 -2.04294,-0.28 -64.34726,-0.5091 -138.45389,-0.5091 -76.70209,0 -135.53784,-0.3067 -136.59296,-0.7118 -2.3203,-0.8912 -4.23847,-2.7216 -12.26146,-11.7005 -3.52272,-3.9423 -8.04875,-8.9771 -10.05788,-11.1884 -7.7299,-8.5075 -7.15532,-6.3718 -7.15532,-26.5983 0,-12.0245 0.30521,-18.5362 0.92381,-19.7071 0.83092,-1.5731 8.52485,-11.457 20.48991,-26.3222 7.18822,-8.9305 5.85737,-8.6521 41.3395,-8.6521 20.31884,0 30.75861,-0.2865 31.85709,-0.8743 3.44875,-1.8458 0.50187,-7.3816 -11.25442,-21.1424 -3.762,-4.4035 -7.033,-8.1864 -7.26892,-8.4065 -1.44531,-1.3486 -15.44977,-17.092 -18.16067,-20.4156 -9.9346,-12.1803 -30.68782,-49.3076 -35.4111,-63.3502 -4.34733,-12.9249 -4.12984,-63.1451 0.36796,-84.9732 1.67403,-8.1241 5.34938,-17.548 8.89036,-22.7958 5.93272,-8.7922 20.43755,-21.8913 28.96197,-26.1551 7.21909,-3.6109 12.07603,-4.4508 25.73073,-4.4495 13.90028,0 14.4709,0.1691 24.41872,7.1794 8.28478,5.8385 7.52574,5.7633 15.31317,1.5183 5.7204,-3.1182 7.78105,-3.8153 12.21473,-4.1326 8.0757,-0.5778 13.04103,0.8686 26.91975,7.8417 6.98057,3.5072 13.25754,6.3699 13.94879,6.3615 0.69125,-0.01 2.69799,-1.2925 4.45932,-2.8534 5.54872,-4.9174 7.21908,-5.5027 15.61195,-5.4712 6.32789,0.023 8.5359,0.3929 13.14125,2.1963 7.09137,2.777 18.15424,10.1056 23.28667,15.4263 7.78508,8.0707 15.55989,23.7357 18.6202,37.5167 1.5188,6.8394 1.66501,45.2641 0.2251,59.148 -1.24865,12.0391 -3.68003,19.0556 -13.64058,39.3639 -10.76924,21.9572 -22.56696,39.935 -39.9301,60.8466 -7.16426,8.6285 -9.72631,11.1602 -14.84144,14.6661 l -3.87657,2.657 0.50264,3.6672 c 0.27646,2.0169 0.94813,4.2039 1.49257,4.8599 0.87192,1.0507 18.23981,1.1556 145.77964,0.8815 l 144.78981,-0.3114 1.53207,1.8901 c 2.01051,2.4802 1.97757,6.8955 -0.14508,19.3931 -12.96369,76.3278 -54.53208,149.3032 -114.01146,200.153 -54.69916,46.7631 -119.87049,74.3086 -192.07555,81.1836 -11.37863,1.0833 -45.49754,1.5164 -54.11294,0.6867 z m 55.24229,-29.4876 c 71.67725,-8.0675 135.78955,-38.5886 186.95929,-89.0032 31.35951,-30.8966 55.32273,-67.4429 72.01629,-109.8316 6.44085,-16.3549 14.49945,-44.8604 13.89213,-49.1407 l -0.25893,-1.8251 -141.70853,-0.4003 -141.70851,-0.4003 3.60276,-1.8787 c 4.93752,-2.5747 6.26855,-3.9047 7.16803,-7.1623 1.23508,-4.4732 -0.33308,-10.0305 -3.65293,-12.9454 -2.36702,-2.0783 -3.41062,-2.4323 -7.17082,-2.4323 -5.08758,0 -6.3307,1.4025 -3.762,4.2441 3.3702,3.728 4.55328,12.8483 2.24566,17.3107 -0.64291,1.2433 -0.94314,2.4864 -0.66717,2.7624 0.27603,0.2759 -3.52128,0.5018 -8.43832,0.5018 -4.91711,0 -8.94019,-0.1632 -8.94019,-0.3628 0,-0.1997 1.53117,-1.0513 3.40257,-1.8928 5.61904,-2.5265 7.42012,-5.093 7.3229,-10.4352 -0.0937,-5.1476 -1.6966,-8.8721 -4.65182,-10.8083 -2.27917,-1.4934 -10.46434,-1.8352 -11.30672,-0.4723 -0.2881,0.4662 0.41865,2.2076 1.5705,3.8699 1.19786,1.7285 2.46105,5.1038 2.95102,7.8853 0.72494,4.1158 0.64982,5.299 -0.48895,7.6989 -0.74007,1.5595 -1.11175,3.214 -0.82593,3.6765 0.35229,0.5699 -2.52565,0.8291 -8.93479,0.8047 l -9.45442,-0.036 3.25456,-1.7652 c 8.27565,-4.4886 9.83613,-7.8422 7.41279,-15.9305 -1.46476,-4.8889 -4.61729,-7.0509 -10.28125,-7.0509 -2.58222,0 -4.93074,0.3814 -5.21883,0.8476 -0.28817,0.4662 0.41948,2.2089 1.57242,3.8727 3.72681,5.3777 4.68905,11.7843 2.42693,16.1589 -0.67845,1.3121 -1.03435,2.708 -0.79086,3.102 0.24973,0.4041 -4.47703,0.8301 -10.84178,0.9772 -10.07356,0.2329 -11.40634,0.4276 -12.41925,1.815 -1.34377,1.8405 -1.55904,11.7689 -0.30588,14.1104 0.81525,1.5234 3.50729,1.5487 164.92624,1.5487 161.8693,0 164.11885,0.022 165.6655,1.5679 1.79676,1.7968 1.63476,2.5808 -3.70377,17.9262 -42.0867,120.9762 -156.3228,202.3078 -284.08335,202.2561 -62.9961,-0.026 -122.02796,-18.6832 -173.95256,-54.9799 -25.16953,-17.5942 -52.43178,-44.4124 -70.0312,-68.8903 -31.1049,-43.2624 -49.55164,-91.204 -55.99108,-145.5167 -1.37818,-11.6242 -1.39445,-51.6776 -0.0258,-62.8481 4.81125,-39.2589 13.44945,-68.8725 29.77614,-102.0782 42.34203,-86.1165 123.6575,-146.9745 218.18435,-163.29322 19.61132,-3.38562 27.78088,-4.023 51.63955,-4.02912 28.43328,-0.009 45.33692,1.90467 70.85424,8.01374 72.65864,17.3952 137.14383,62.4366 179.65231,125.4828 2.97135,4.4068 4.92687,4.8277 9.30015,2.0015 5.15115,-3.3289 4.90833,-4.1298 -5.64471,-18.6143 -66.83312,-91.7322 -175.81274,-140.13848 -288.1877,-128.00675 -70.77386,7.64055 -138.00009,39.92545 -187.88887,90.23215 -51.81338,52.2472 -82.29536,116.9247 -90.43742,191.8925 -1.27705,11.7582 -1.28619,47.2567 -0.015,59.2454 9.63294,90.869 54.40562,169.7638 126.62533,223.1288 47.19957,34.8772 104.39313,55.7962 164.82671,60.2865 12.53982,0.9319 41.25706,0.3053 54.54126,-1.1899 z m -4.00301,-40.9286 c 54.04767,-5.886 105.14777,-27.7992 146.76072,-62.9353 8.47381,-7.1548 26.57563,-25.53 33.74163,-34.2511 15.05364,-18.3204 31.80534,-45.1462 37.14045,-59.4756 2.06037,-5.534 2.11365,-6.4725 0.46134,-8.1248 -1.1421,-1.1421 -14.99697,-1.2603 -143.9192,-1.227 -111.89454,0.029 -143.08506,0.2509 -144.64794,1.0301 -1.8723,0.9334 -1.99251,1.377 -1.99251,7.351 0,5.7601 0.16639,6.4405 1.77022,7.2402 1.26217,0.6292 35.03606,0.9128 117.69011,0.9882 63.75593,0.059 123.7672,0.1221 133.35835,0.1419 20.40598,0.042 20.04877,-0.1293 15.81877,7.5934 -4.48632,8.1906 -15.5231,24.4095 -22.91495,33.6743 -13.53454,16.9638 -34.72843,36.7976 -53.4713,50.0397 -55.074,38.9106 -125.6372,54.9179 -192.33009,43.6302 -42.70303,-7.2273 -82.21647,-24.6044 -117.35706,-51.6108 -12.25796,-9.4205 -34.61693,-31.7071 -44.21847,-44.0753 -34.93487,-45.0015 -53.6751,-96.8141 -55.44849,-153.3028 -2.04398,-65.1038 20.53044,-128.3474 63.63385,-178.2747 50.47284,-58.4631 126.70873,-91.8409 203.90769,-89.2752 57.7605,1.9197 110.20899,21.1972 155.31895,57.0875 17.22738,13.7065 39.46318,37.6099 51.08982,54.9214 2.28385,3.4004 4.79399,6.4005 5.57807,6.6667 0.83439,0.2833 2.90934,-0.3855 5.00382,-1.613 4.86648,-2.852 4.76937,-4.8141 -0.62496,-12.6295 -13.22187,-19.1558 -35.10905,-42.544 -53.57397,-57.2478 -41.65179,-33.1678 -89.37418,-52.6266 -143.97734,-58.7068 -11.15685,-1.2423 -40.52839,-1.2563 -52.03982,-0.025 -35.59243,3.8079 -65.52331,12.4298 -96.2217,27.7175 -63.98512,31.8645 -112.16314,86.884 -135.99329,155.3051 -33.16172,95.2139 -9.45412,203.4548 60.56989,276.5414 59.29205,61.8854 142.01085,92.0894 226.88741,82.8458 z M 487.52026,1397.0374 c 7.82424,-5.795 7.72505,-16.92 -0.19449,-21.8146 -5.9945,-3.7049 -15.03604,-1.1225 -18.07906,5.1635 -3.39578,7.0148 -1.09337,13.7613 6.00634,17.5993 3.10498,1.6784 9.37505,1.1938 12.26721,-0.9482 z m 62.58834,-75.6906 c 1.5412,0.01 4.50741,0.2806 6.59167,0.607 2.97389,0.4656 4.78326,0.2219 8.40643,-1.1328 4.35826,-1.6294 4.84121,-1.6581 8.61997,-0.5115 5.20989,1.5807 9.97723,1.5514 14.07081,-0.086 2.67109,-1.0689 3.9891,-1.1596 6.96167,-0.4794 2.01677,0.4616 4.12132,0.6647 4.67686,0.4516 0.55549,-0.2132 3.16747,-3.7595 5.80439,-7.8806 2.63692,-4.1212 9.94523,-14.0892 16.24076,-22.1508 15.66096,-20.0549 28.3462,-39.278 35.52578,-53.8356 7.33919,-14.8812 9.6252,-21.729 10.7776,-32.2842 1.29159,-11.8303 1.36833,-41.0509 0.12453,-47.4291 -3.08666,-15.8282 -7.93808,-25.3877 -18.1719,-35.8073 -7.46923,-7.6049 -13.05321,-10.6282 -19.62987,-10.6282 -4.2919,0 -8.74413,1.7728 -8.74413,3.4817 0,0.5712 1.60623,3.5492 3.56943,6.6178 5.39027,8.425 6.09275,12.1008 6.40841,33.5339 0.37487,25.4502 -0.60232,47.8403 -2.28865,52.4401 -5.41711,14.7764 -12.48098,22.6363 -23.76789,26.4462 -8.03185,2.7111 -11.50353,2.0675 -21.14979,-3.921 l -8.00617,-4.9704 -3.60277,3.9525 c -4.74536,5.2059 -18.56813,15.8807 -23.61806,18.2394 -7.36026,3.4377 -14.86336,2.1653 -25.57449,-4.337 -9.96433,-6.0489 -16.33869,-14.5434 -20.86441,-27.8038 -3.79005,-11.1048 -4.60013,-43.3449 -1.50776,-60.0104 4.53221,-24.4254 12.9019,-41.1543 25.45331,-50.8745 1.99005,-1.5412 3.63194,-3.1947 3.64864,-3.6744 0.0707,-2.0369 -4.65177,-2.9916 -16.59557,-3.3548 l -12.22249,-0.3717 -3.38947,2.2319 c -14.80998,9.7522 -26.39231,27.4055 -29.12998,44.3991 -1.50614,9.3486 -2.38323,55.3755 -1.19882,62.9089 1.5146,9.6335 14.60984,38.6752 25.96496,57.5833 4.7255,7.8688 10.31854,15.3259 19.81596,26.4203 2.63866,3.0824 9.07949,11.0084 14.31292,17.6135 13.11356,16.5505 12.42819,15.9152 16.39837,15.1976 1.80817,-0.3269 4.54855,-0.5884 6.08975,-0.5809 z m 26.16888,-47.8555 c -3.06781,-0.9209 -4.55232,-2.2796 -4.55232,-4.1667 0,-0.9323 -2.65008,-4.1275 -6.45123,-7.7786 l -6.45128,-6.1964 0.24649,-4.319 0.24649,-4.319 4.15506,-0.8144 c 3.34786,-0.6562 4.69121,-1.4365 6.91483,-4.0168 2.56115,-2.9719 3.05071,-3.1983 6.79943,-3.1451 6.59179,0.093 6.55096,-0.013 6.53848,17.0537 -0.006,8.2023 -0.22818,15.7241 -0.49371,16.7148 -0.52198,1.9478 -2.71522,2.2594 -6.95224,0.9875 z M 857.85864,1235.41 c 0.67167,-1.7503 0.52497,-20.831 -0.19026,-24.7536 l -0.58392,-3.2024 -4.77405,0.2579 c -2.62575,0.1419 -6.23268,0.9002 -8.01531,1.685 -3.43287,1.5115 -10.76949,9.3451 -10.76949,11.4992 0,0.6931 1.16406,2.0954 2.58678,3.1161 5.62815,4.0378 19.48239,12.6603 20.34513,12.6623 0.50337,0 1.13391,-0.568 1.40112,-1.2645 z m -318.158,-7.2322 c 0,-1.1514 -1.96308,-6.1052 -4.36233,-11.0083 -5.13393,-10.4918 -7.25469,-19.1837 -6.45609,-26.4599 1.36863,-12.4694 8.26029,-26.469 16.66102,-33.8449 2.72831,-2.3955 3.65386,-2.7382 10.34407,-3.83 5.48424,-0.8948 6.51882,-3.5469 4.1362,-10.6026 -1.98626,-5.882 -11.79879,-27.2595 -13.33706,-29.0561 -0.90843,-1.061 -2.36034,-1.5953 -4.33519,-1.5953 -2.51683,0 -3.5259,0.5929 -6.62133,3.8899 -4.49841,4.7914 -10.75358,15.6587 -12.80805,22.2517 -3.77804,12.1243 -6.45933,31.9635 -6.47932,47.9413 -0.0126,10.0127 0.27063,12.9728 1.68482,17.6135 1.90268,6.2433 7.04484,15.0388 12.91902,22.0974 3.15656,3.7929 4.36558,4.697 6.28159,4.697 2.02493,0 2.37265,-0.3069 2.37265,-2.0937 z m 51.21107,-13.0653 c 1.39522,-2.607 0.95659,-4.0651 -2.35447,-7.8266 -3.89392,-4.4238 -4.39116,-6.8112 -3.69846,-17.7579 1.33931,-21.1658 6.65056,-32.4494 18.73948,-39.8113 6.82015,-4.1534 8.95814,-6.1534 8.95814,-8.3801 0,-1.6229 -7.63952,-19.8975 -8.80742,-21.0682 -1.57885,-1.5828 -4.83915,2.2771 -10.39599,12.3079 -3.19792,5.7727 -7.41837,14.4904 -9.3787,19.3725 -3.15091,7.8473 -3.64875,9.9557 -4.2925,18.1802 -0.40051,5.1169 -0.62388,15.068 -0.49634,22.1134 0.25777,14.2401 0.72595,15.911 6.00051,21.4164 3.23606,3.3777 4.5214,3.704 5.72575,1.4537 z m -13.66977,-88.1789 c 1.05272,-1.9492 4.025,-6.8793 6.60506,-10.9558 2.58005,-4.0765 4.69103,-7.7215 4.69103,-8.0999 0,-0.875 -5.25804,-4.3157 -8.40644,-5.5009 -6.47205,-2.4363 -12.79574,-1.7826 -16.25913,1.6809 l -1.99857,1.9986 2.42123,3.8628 c 1.3317,2.1247 3.41488,6.7452 4.62931,10.2679 4.16022,12.0676 5.05263,12.7914 8.31751,6.7464 z"
       id="path177" />
    <text
       xml:space="preserve"
       style="font-weight:500;font-family:Ubuntu;-inkscape-font-specification:'Ubuntu Medium';fill:#000000"
       x="303.1579"
       y="1640.6191"
       id="text233"><tspan
         sodipodi:role="line"
         id="tspan231"
         x="303.1579"
         y="1640.6191" /></text>
    <text
       xml:space="preserve"
       style="font-style:normal;font-variant:normal;font-weight:500;font-stretch:normal;font-size:146.809px;font-family:Ubuntu;-inkscape-font-specification:'Ubuntu Medium';fill:#000000;stroke-width:12.2341"
       x="220.86162"
       y="1770.4227"
       id="text237"><tspan
         sodipodi:role="line"
         id="tspan235"
         x="220.86162"
         y="1770.4227"
         style="font-style:normal;font-variant:normal;font-weight:500;font-stretch:normal;font-family:Ubuntu;-inkscape-font-specification:'Ubuntu Medium';stroke-width:12.2341">#gymkren</tspan></text>
  </g>
</svg>
